<?xml version="1.0" encoding="UTF-8"?>
<!DOCTYPE svg PUBLIC "-//W3C//DTD SVG 1.1//EN" "http://www.w3.org/Graphics/SVG/1.1/DTD/svg11.dtd">
<!-- Creator: CorelDRAW 2019 (64-Bit) -->
<svg xmlns="http://www.w3.org/2000/svg" xml:space="preserve" width="960px" height="960px" version="1.1" style="shape-rendering:geometricPrecision; text-rendering:geometricPrecision; image-rendering:optimizeQuality; fill-rule:evenodd; clip-rule:evenodd"
viewBox="0 0 960 960"
 xmlns:xlink="http://www.w3.org/1999/xlink"
 xmlns:xodm="http://www.corel.com/coreldraw/odm/2003">
 <defs>
  <style type="text/css">
   <![CDATA[
    .fil0 {fill:#1F93D1}
    .fil1 {fill:#23A9F2}
   ]]>
  </style>
 </defs>
 <g id="Layer_x0020_1">
  <metadata id="CorelCorpID_0Corel-Layer"/>
  <g id="_2306066137328">
   <g>
    <path class="fil0" d="M69.9 219.95l616.14 354.83 67.59 14.33 62.7 -98.37 -110.8 -70.26 -365.91 -211.34c0,0 -128.1,-68.1 -269.72,10.81z"/>
    <path class="fil0" d="M335.79 74.5l435.22 250.01 -22.01 -174.83 -98.1 -62.38c0,0 -81.58,-52.25 -152.49,-52.79 -70.91,-0.53 -122.09,15.47 -162.62,39.99z"/>
    <path class="fil1" d="M680.86 571.82c0,0 80.5,2.12 87.92,-84.74 7.41,-86.86 -4.24,-204.43 -4.24,-204.43 0,0 -21.18,-120.75 -52.96,-156.77 0,0 193.58,76.27 198.88,249.98l-1.06 179.01c0,0 -6.08,49.27 -47.66,70.72 -41.57,21.44 -85.79,1.05 -119.69,-18.01l-61.19 -35.76z"/>
   </g>
   <g>
    <path class="fil0" d="M884.56 759.93l-616.14 -354.82 -67.59 -14.34 -62.7 98.37 110.8 70.26 365.91 211.34c0,0 128.1,68.1 269.72,-10.81z"/>
    <path class="fil0" d="M618.67 905.38l-435.22 -250.01 22.01 174.83 98.1 62.39c0,0 81.58,52.25 152.49,52.78 70.91,0.53 122.09,-15.46 162.62,-39.99z"/>
    <path class="fil1" d="M273.6 408.06c0,0 -80.5,-2.11 -87.92,84.74 -7.41,86.86 4.24,204.43 4.24,204.43 0,0 21.18,120.76 52.96,156.77 0,0 -193.58,-76.27 -198.88,-249.98l1.06 -179.01c0,0 6.08,-49.26 47.66,-70.71 41.57,-21.45 85.8,-1.06 119.69,18l61.19 35.76z"/>
   </g>
  </g>
 </g>
</svg>
